<svg id="Layer_1" data-name="Layer 1" xmlns="http://www.w3.org/2000/svg" xmlns:xlink="http://www.w3.org/1999/xlink" viewBox="0 0 291.69 291.69"><defs><style>.cls-1{fill:url(#Degradado_sin_nombre_13);}.cls-2{fill:#fff;fill-rule:evenodd;}</style><linearGradient id="Degradado_sin_nombre_13" x1="145.84" x2="145.84" y2="291.69" gradientUnits="userSpaceOnUse"><stop offset="0" stop-color="#00c13e"/><stop offset="1" stop-color="#008530"/></linearGradient></defs><rect class="cls-1" width="291.69" height="291.69" rx="48.19"/><path class="cls-2" d="M313,197.44c0,53.5-43.71,96.88-97.63,96.88a97.79,97.79,0,0,1-47.2-12.05l-54.06,17.17,17.63-52a95.81,95.81,0,0,1-14-50c0-53.51,43.71-96.88,97.64-96.88S313,143.93,313,197.44ZM215.39,116c-45.27,0-82.09,36.53-82.09,81.45a80.6,80.6,0,0,0,15.63,47.76l-10.25,30.25,31.54-10a82,82,0,0,0,45.17,13.47c45.26,0,82.08-36.54,82.08-81.45S260.65,116,215.39,116Zm49.3,103.77c-.6-1-2.2-1.59-4.58-2.78s-14.17-6.93-16.36-7.72-3.8-1.19-5.38,1.18-6.19,7.73-7.59,9.32-2.78,1.78-5.18.59-10.11-3.7-19.25-11.78A72.29,72.29,0,0,1,193,192.12c-1.39-2.37-.14-3.66,1.05-4.84s2.4-2.77,3.59-4.16a16.18,16.18,0,0,0,2.4-4,4.29,4.29,0,0,0-.21-4.15c-.59-1.19-5.38-12.87-7.38-17.63s-4-4.57-5.38-4.57a35,35,0,0,0-4,.41s-4.79.6-7,3-8.38,8.12-8.38,19.8,8.57,23,9.77,24.56,16.55,26.35,40.88,35.86,24.34,6.33,28.73,5.93,14.15-5.74,16.15-11.29,2-10.3,1.4-11.28Zm0,0" transform="translate(-67.73 -54.16)"/></svg>