<svg id="Layer_1" data-name="Layer 1" xmlns="http://www.w3.org/2000/svg" xmlns:xlink="http://www.w3.org/1999/xlink" viewBox="0 0 198.89 198.89"><defs><style>.cls-1{fill-rule:evenodd;fill:url(#Degradado_sin_nombre_13);}</style><linearGradient id="Degradado_sin_nombre_13" x1="102.13" y1="196.95" x2="301.02" y2="196.95" gradientUnits="userSpaceOnUse"><stop offset="0" stop-color="#00ac4e"/><stop offset="1" stop-color="#008948"/></linearGradient></defs><path class="cls-1" d="M301,194.39c0,53.5-43.72,96.88-97.64,96.88a97.73,97.73,0,0,1-47.19-12L102.13,296.4l17.62-52a95.9,95.9,0,0,1-14-50c0-53.51,43.71-96.88,97.64-96.88S301,140.88,301,194.39Zm-97.64-81.45c-45.27,0-82.09,36.53-82.09,81.45a80.61,80.61,0,0,0,15.64,47.76L126.68,272.4l31.54-10a82,82,0,0,0,45.16,13.47c45.26,0,82.09-36.54,82.09-81.45s-36.83-81.45-82.09-81.45Zm49.31,103.77c-.61-1-2.21-1.59-4.59-2.78s-14.17-6.93-16.36-7.72-3.8-1.19-5.38,1.19-6.19,7.72-7.59,9.31-2.78,1.78-5.18.59-10.11-3.7-19.25-11.78A72.29,72.29,0,0,1,181,189.07c-1.38-2.37-.13-3.65,1-4.84s2.4-2.77,3.6-4.15a16.7,16.7,0,0,0,2.39-4,4.31,4.31,0,0,0-.2-4.15c-.6-1.19-5.39-12.87-7.38-17.63s-4-4.57-5.39-4.57a34.7,34.7,0,0,0-4,.41s-4.8.6-7,3-8.38,8.13-8.38,19.8,8.57,23,9.77,24.56,16.55,26.35,40.89,35.86,24.33,6.33,28.72,5.93,14.16-5.74,16.15-11.29,2-10.3,1.41-11.28Zm0,0" transform="translate(-102.13 -97.51)"/></svg>